
<svg xmlns="http://www.w3.org/2000/svg" xmlns:xlink="http://www.w3.org/1999/xlink" width="500" zoomAndPan="magnify" viewBox="0 0 375 374.999991" height="500" preserveAspectRatio="xMidYMid meet" version="1.0"><path fill="#000000" d="M 187.5 375 C 184.429688 375 181.363281 374.925781 178.300781 374.773438 C 175.234375 374.625 172.175781 374.398438 169.121094 374.097656 C 166.066406 373.796875 163.023438 373.421875 159.988281 372.96875 C 156.953125 372.519531 153.929688 371.996094 150.921875 371.398438 C 147.910156 370.796875 144.917969 370.125 141.941406 369.378906 C 138.964844 368.636719 136.007812 367.816406 133.070312 366.925781 C 130.136719 366.035156 127.222656 365.074219 124.332031 364.039062 C 121.445312 363.003906 118.582031 361.902344 115.746094 360.726562 C 112.910156 359.554688 110.105469 358.308594 107.332031 356.996094 C 104.558594 355.6875 101.820312 354.308594 99.113281 352.859375 C 96.40625 351.414062 93.738281 349.902344 91.105469 348.324219 C 88.472656 346.746094 85.882812 345.105469 83.332031 343.402344 C 80.777344 341.695312 78.269531 339.929688 75.804688 338.101562 C 73.339844 336.273438 70.921875 334.386719 68.550781 332.441406 C 66.179688 330.492188 63.855469 328.488281 61.582031 326.429688 C 59.308594 324.367188 57.085938 322.253906 54.917969 320.082031 C 52.746094 317.914062 50.632812 315.691406 48.570312 313.417969 C 46.511719 311.144531 44.507812 308.820312 42.558594 306.449219 C 40.613281 304.078125 38.726562 301.660156 36.898438 299.195312 C 35.070312 296.730469 33.304688 294.222656 31.597656 291.667969 C 29.894531 289.117188 28.253906 286.527344 26.675781 283.894531 C 25.097656 281.261719 23.585938 278.59375 22.140625 275.886719 C 20.691406 273.179688 19.3125 270.441406 18.003906 267.667969 C 16.691406 264.894531 15.445312 262.089844 14.273438 259.253906 C 13.097656 256.417969 11.996094 253.554688 10.960938 250.667969 C 9.925781 247.777344 8.964844 244.863281 8.074219 241.929688 C 7.183594 238.992188 6.363281 236.035156 5.621094 233.058594 C 4.875 230.082031 4.203125 227.089844 3.601562 224.078125 C 3.003906 221.070312 2.480469 218.046875 2.03125 215.011719 C 1.578125 211.976562 1.203125 208.933594 0.902344 205.878906 C 0.601562 202.824219 0.375 199.765625 0.226562 196.699219 C 0.0742188 193.636719 0 190.570312 0 187.5 C 0 184.429688 0.0742188 181.363281 0.226562 178.300781 C 0.375 175.234375 0.601562 172.175781 0.902344 169.121094 C 1.203125 166.066406 1.578125 163.023438 2.03125 159.988281 C 2.480469 156.953125 3.003906 153.929688 3.601562 150.921875 C 4.203125 147.910156 4.875 144.917969 5.621094 141.941406 C 6.363281 138.964844 7.183594 136.007812 8.074219 133.070312 C 8.964844 130.136719 9.925781 127.222656 10.960938 124.332031 C 11.996094 121.445312 13.097656 118.582031 14.273438 115.746094 C 15.445312 112.910156 16.691406 110.105469 18.003906 107.332031 C 19.3125 104.558594 20.691406 101.820312 22.140625 99.113281 C 23.585938 96.40625 25.097656 93.738281 26.675781 91.105469 C 28.253906 88.472656 29.894531 85.882812 31.597656 83.332031 C 33.304688 80.777344 35.070312 78.269531 36.898438 75.804688 C 38.726562 73.339844 40.613281 70.921875 42.558594 68.550781 C 44.507812 66.179688 46.511719 63.855469 48.570312 61.582031 C 50.632812 59.308594 52.746094 57.085938 54.917969 54.917969 C 57.085938 52.746094 59.308594 50.632812 61.582031 48.570312 C 63.855469 46.511719 66.179688 44.507812 68.550781 42.558594 C 70.921875 40.613281 73.339844 38.726562 75.804688 36.898438 C 78.269531 35.070312 80.777344 33.304688 83.332031 31.597656 C 85.882812 29.894531 88.472656 28.253906 91.105469 26.675781 C 93.738281 25.097656 96.40625 23.585938 99.113281 22.140625 C 101.820312 20.691406 104.558594 19.3125 107.332031 18.003906 C 110.105469 16.691406 112.910156 15.445312 115.746094 14.273438 C 118.582031 13.097656 121.445312 11.996094 124.332031 10.960938 C 127.222656 9.925781 130.136719 8.964844 133.070312 8.074219 C 136.007812 7.183594 138.964844 6.363281 141.941406 5.621094 C 144.917969 4.875 147.910156 4.203125 150.921875 3.601562 C 153.929688 3.003906 156.953125 2.480469 159.988281 2.03125 C 163.023438 1.578125 166.066406 1.203125 169.121094 0.902344 C 172.175781 0.601562 175.234375 0.375 178.300781 0.226562 C 181.363281 0.0742188 184.429688 0 187.5 0 C 190.570312 0 193.636719 0.0742188 196.699219 0.226562 C 199.765625 0.375 202.824219 0.601562 205.878906 0.902344 C 208.933594 1.203125 211.976562 1.578125 215.011719 2.03125 C 218.046875 2.480469 221.070312 3.003906 224.078125 3.601562 C 227.089844 4.203125 230.082031 4.875 233.058594 5.621094 C 236.035156 6.363281 238.992188 7.183594 241.929688 8.074219 C 244.863281 8.964844 247.777344 9.925781 250.667969 10.960938 C 253.554688 11.996094 256.417969 13.097656 259.253906 14.273438 C 262.089844 15.445312 264.894531 16.691406 267.667969 18.003906 C 270.441406 19.3125 273.179688 20.691406 275.886719 22.140625 C 278.59375 23.585938 281.261719 25.097656 283.894531 26.675781 C 286.527344 28.253906 289.117188 29.894531 291.667969 31.597656 C 294.222656 33.304688 296.730469 35.070312 299.195312 36.898438 C 301.660156 38.726562 304.078125 40.613281 306.449219 42.558594 C 308.820312 44.507812 311.144531 46.511719 313.417969 48.570312 C 315.691406 50.632812 317.914062 52.746094 320.082031 54.917969 C 322.253906 57.085938 324.367188 59.308594 326.429688 61.582031 C 328.488281 63.855469 330.492188 66.179688 332.441406 68.550781 C 334.386719 70.921875 336.273438 73.339844 338.101562 75.804688 C 339.929688 78.269531 341.695312 80.777344 343.402344 83.332031 C 345.105469 85.882812 346.746094 88.472656 348.324219 91.105469 C 349.902344 93.738281 351.414062 96.40625 352.859375 99.113281 C 354.308594 101.820312 355.6875 104.558594 356.996094 107.332031 C 358.308594 110.105469 359.554688 112.910156 360.726562 115.746094 C 361.902344 118.582031 363.003906 121.445312 364.039062 124.332031 C 365.074219 127.222656 366.035156 130.136719 366.925781 133.070312 C 367.816406 136.007812 368.636719 138.964844 369.382812 141.941406 C 370.125 144.917969 370.796875 147.910156 371.398438 150.921875 C 371.996094 153.929688 372.519531 156.953125 372.96875 159.988281 C 373.421875 163.023438 373.796875 166.066406 374.097656 169.121094 C 374.398438 172.175781 374.625 175.234375 374.773438 178.300781 C 374.925781 181.363281 375 184.429688 375 187.5 C 374.996094 190.566406 374.917969 193.632812 374.765625 196.699219 C 374.613281 199.761719 374.382812 202.820312 374.078125 205.871094 C 373.777344 208.925781 373.398438 211.96875 372.945312 215.003906 C 372.492188 218.035156 371.964844 221.058594 371.363281 224.066406 C 370.765625 227.074219 370.089844 230.066406 369.34375 233.042969 C 368.59375 236.015625 367.773438 238.972656 366.882812 241.90625 C 365.988281 244.839844 365.027344 247.753906 363.992188 250.640625 C 362.957031 253.527344 361.851562 256.390625 360.675781 259.222656 C 359.5 262.054688 358.253906 264.859375 356.941406 267.632812 C 355.628906 270.40625 354.25 273.144531 352.800781 275.847656 C 351.355469 278.554688 349.84375 281.222656 348.265625 283.851562 C 346.6875 286.484375 345.046875 289.074219 343.339844 291.625 C 341.636719 294.171875 339.871094 296.679688 338.042969 299.144531 C 336.214844 301.609375 334.324219 304.023438 332.378906 306.394531 C 330.433594 308.765625 328.429688 311.089844 326.371094 313.363281 C 324.308594 315.636719 322.195312 317.855469 320.027344 320.023438 C 317.855469 322.195312 315.636719 324.308594 313.363281 326.371094 C 311.089844 328.429688 308.765625 330.433594 306.394531 332.378906 C 304.023438 334.324219 301.609375 336.214844 299.144531 338.042969 C 296.679688 339.871094 294.171875 341.636719 291.625 343.339844 C 289.074219 345.046875 286.484375 346.6875 283.851562 348.265625 C 281.222656 349.84375 278.554688 351.355469 275.847656 352.800781 C 273.144531 354.25 270.40625 355.628906 267.632812 356.941406 C 264.859375 358.253906 262.054688 359.5 259.222656 360.675781 C 256.390625 361.851562 253.527344 362.957031 250.640625 363.992188 C 247.753906 365.027344 244.839844 365.988281 241.90625 366.882812 C 238.972656 367.773438 236.015625 368.59375 233.042969 369.34375 C 230.066406 370.089844 227.074219 370.765625 224.066406 371.363281 C 221.058594 371.964844 218.035156 372.492188 215.003906 372.945312 C 211.96875 373.398438 208.925781 373.777344 205.871094 374.078125 C 202.820312 374.382812 199.761719 374.613281 196.699219 374.765625 C 193.632812 374.917969 190.566406 374.996094 187.5 375 Z M 187.5 7.8125 C 184.558594 7.8125 181.621094 7.882812 178.683594 8.027344 C 175.746094 8.171875 172.8125 8.390625 169.886719 8.679688 C 166.960938 8.964844 164.042969 9.324219 161.132812 9.757812 C 158.226562 10.1875 155.328125 10.691406 152.445312 11.265625 C 149.558594 11.839844 146.691406 12.484375 143.839844 13.199219 C 140.988281 13.910156 138.152344 14.695312 135.339844 15.550781 C 132.523438 16.402344 129.734375 17.324219 126.964844 18.316406 C 124.195312 19.308594 121.453125 20.363281 118.738281 21.492188 C 116.019531 22.617188 113.332031 23.808594 110.671875 25.0625 C 108.015625 26.320312 105.390625 27.644531 102.796875 29.03125 C 100.203125 30.414062 97.644531 31.863281 95.121094 33.375 C 92.601562 34.890625 90.117188 36.460938 87.671875 38.09375 C 85.226562 39.730469 82.824219 41.421875 80.460938 43.171875 C 78.097656 44.925781 75.78125 46.734375 73.507812 48.601562 C 71.234375 50.464844 69.007812 52.386719 66.828125 54.359375 C 64.648438 56.335938 62.519531 58.363281 60.441406 60.441406 C 58.363281 62.519531 56.335938 64.648438 54.359375 66.828125 C 52.386719 69.007812 50.464844 71.234375 48.601562 73.507812 C 46.734375 75.78125 44.925781 78.097656 43.171875 80.460938 C 41.421875 82.824219 39.730469 85.226562 38.09375 87.671875 C 36.460938 90.117188 34.890625 92.601562 33.375 95.121094 C 31.863281 97.644531 30.417969 100.203125 29.03125 102.796875 C 27.644531 105.390625 26.320312 108.015625 25.0625 110.671875 C 23.808594 113.332031 22.617188 116.019531 21.492188 118.738281 C 20.363281 121.453125 19.308594 124.195312 18.316406 126.964844 C 17.324219 129.734375 16.402344 132.523438 15.550781 135.339844 C 14.695312 138.152344 13.910156 140.988281 13.199219 143.839844 C 12.484375 146.691406 11.839844 149.558594 11.265625 152.445312 C 10.691406 155.328125 10.1875 158.226562 9.757812 161.132812 C 9.324219 164.042969 8.964844 166.960938 8.679688 169.886719 C 8.390625 172.8125 8.171875 175.746094 8.027344 178.683594 C 7.882812 181.621094 7.8125 184.558594 7.8125 187.5 C 7.8125 190.441406 7.882812 193.378906 8.027344 196.316406 C 8.171875 199.253906 8.390625 202.1875 8.679688 205.113281 C 8.964844 208.039062 9.324219 210.957031 9.757812 213.867188 C 10.1875 216.773438 10.691406 219.671875 11.265625 222.554688 C 11.839844 225.441406 12.484375 228.308594 13.199219 231.160156 C 13.910156 234.011719 14.695312 236.847656 15.550781 239.660156 C 16.402344 242.476562 17.324219 245.265625 18.316406 248.035156 C 19.308594 250.804688 20.363281 253.546875 21.492188 256.261719 C 22.617188 258.980469 23.808594 261.667969 25.0625 264.328125 C 26.320312 266.984375 27.644531 269.609375 29.03125 272.203125 C 30.417969 274.796875 31.863281 277.355469 33.375 279.878906 C 34.890625 282.398438 36.460938 284.882812 38.09375 287.328125 C 39.730469 289.773438 41.421875 292.175781 43.171875 294.539062 C 44.925781 296.902344 46.734375 299.21875 48.601562 301.492188 C 50.464844 303.765625 52.386719 305.992188 54.359375 308.171875 C 56.335938 310.351562 58.363281 312.480469 60.441406 314.558594 C 62.519531 316.636719 64.648438 318.664062 66.828125 320.640625 C 69.007812 322.613281 71.234375 324.535156 73.507812 326.398438 C 75.78125 328.265625 78.097656 330.074219 80.460938 331.828125 C 82.824219 333.578125 85.226562 335.269531 87.671875 336.90625 C 90.117188 338.539062 92.601562 340.109375 95.121094 341.625 C 97.644531 343.136719 100.203125 344.582031 102.796875 345.96875 C 105.390625 347.355469 108.015625 348.679688 110.671875 349.933594 C 113.332031 351.191406 116.019531 352.382812 118.738281 353.507812 C 121.453125 354.636719 124.195312 355.691406 126.964844 356.683594 C 129.734375 357.675781 132.523438 358.597656 135.339844 359.449219 C 138.152344 360.304688 140.988281 361.089844 143.839844 361.800781 C 146.691406 362.515625 149.558594 363.160156 152.445312 363.734375 C 155.328125 364.308594 158.226562 364.8125 161.132812 365.242188 C 164.042969 365.675781 166.960938 366.035156 169.886719 366.324219 C 172.8125 366.609375 175.746094 366.828125 178.683594 366.972656 C 181.621094 367.117188 184.558594 367.1875 187.5 367.1875 C 190.441406 367.1875 193.378906 367.117188 196.316406 366.972656 C 199.253906 366.828125 202.1875 366.609375 205.113281 366.324219 C 208.039062 366.035156 210.957031 365.675781 213.867188 365.242188 C 216.773438 364.8125 219.671875 364.308594 222.554688 363.734375 C 225.441406 363.160156 228.308594 362.515625 231.160156 361.800781 C 234.011719 361.089844 236.847656 360.304688 239.660156 359.449219 C 242.476562 358.597656 245.265625 357.675781 248.035156 356.683594 C 250.804688 355.691406 253.546875 354.636719 256.261719 353.507812 C 258.980469 352.382812 261.667969 351.191406 264.328125 349.933594 C 266.984375 348.679688 269.609375 347.355469 272.203125 345.96875 C 274.796875 344.582031 277.355469 343.136719 279.878906 341.625 C 282.398438 340.109375 284.882812 338.539062 287.328125 336.90625 C 289.773438 335.269531 292.175781 333.578125 294.539062 331.828125 C 296.902344 330.074219 299.21875 328.265625 301.492188 326.398438 C 303.765625 324.535156 305.992188 322.613281 308.171875 320.640625 C 310.351562 318.664062 312.480469 316.636719 314.558594 314.558594 C 316.636719 312.480469 318.664062 310.351562 320.640625 308.171875 C 322.613281 305.992188 324.535156 303.765625 326.398438 301.492188 C 328.265625 299.21875 330.074219 296.902344 331.828125 294.539062 C 333.578125 292.175781 335.269531 289.773438 336.90625 287.328125 C 338.539062 284.882812 340.109375 282.398438 341.625 279.878906 C 343.136719 277.355469 344.582031 274.796875 345.96875 272.203125 C 347.355469 269.609375 348.679688 266.984375 349.933594 264.328125 C 351.191406 261.667969 352.382812 258.980469 353.507812 256.261719 C 354.636719 253.546875 355.691406 250.804688 356.683594 248.035156 C 357.675781 245.265625 358.597656 242.476562 359.449219 239.660156 C 360.304688 236.847656 361.089844 234.011719 361.800781 231.160156 C 362.515625 228.308594 363.160156 225.441406 363.734375 222.554688 C 364.308594 219.671875 364.8125 216.773438 365.242188 213.867188 C 365.675781 210.957031 366.035156 208.039062 366.324219 205.113281 C 366.609375 202.1875 366.828125 199.253906 366.972656 196.316406 C 367.117188 193.378906 367.1875 190.441406 367.1875 187.5 C 367.183594 184.558594 367.109375 181.621094 366.960938 178.6875 C 366.8125 175.75 366.59375 172.820312 366.300781 169.894531 C 366.007812 166.96875 365.648438 164.054688 365.210938 161.144531 C 364.777344 158.238281 364.273438 155.34375 363.695312 152.460938 C 363.121094 149.578125 362.472656 146.710938 361.757812 143.859375 C 361.039062 141.007812 360.253906 138.179688 359.398438 135.367188 C 358.542969 132.554688 357.617188 129.761719 356.625 126.996094 C 355.632812 124.230469 354.574219 121.488281 353.445312 118.773438 C 352.320312 116.058594 351.128906 113.371094 349.871094 110.714844 C 348.609375 108.058594 347.289062 105.433594 345.902344 102.84375 C 344.515625 100.25 343.066406 97.695312 341.550781 95.171875 C 340.039062 92.652344 338.46875 90.171875 336.832031 87.726562 C 335.199219 85.28125 333.507812 82.878906 331.753906 80.519531 C 330.003906 78.160156 328.195312 75.84375 326.328125 73.570312 C 324.464844 71.296875 322.542969 69.074219 320.570312 66.894531 C 318.59375 64.71875 316.570312 62.589844 314.488281 60.511719 C 312.410156 58.429688 310.28125 56.40625 308.105469 54.429688 C 305.925781 52.457031 303.703125 50.535156 301.429688 48.671875 C 299.15625 46.804688 296.839844 44.996094 294.480469 43.246094 C 292.121094 41.492188 289.71875 39.800781 287.273438 38.167969 C 284.828125 36.535156 282.347656 34.960938 279.828125 33.449219 C 277.304688 31.933594 274.75 30.484375 272.15625 29.097656 C 269.566406 27.710938 266.941406 26.390625 264.285156 25.128906 C 261.628906 23.871094 258.941406 22.679688 256.226562 21.554688 C 253.511719 20.425781 250.769531 19.367188 248.003906 18.375 C 245.238281 17.382812 242.445312 16.457031 239.632812 15.601562 C 236.820312 14.746094 233.992188 13.960938 231.140625 13.242188 C 228.289062 12.527344 225.421875 11.878906 222.539062 11.304688 C 219.65625 10.726562 216.761719 10.222656 213.855469 9.789062 C 210.945312 9.351562 208.03125 8.992188 205.105469 8.699219 C 202.179688 8.40625 199.25 8.1875 196.3125 8.039062 C 193.378906 7.890625 190.441406 7.816406 187.5 7.8125 Z M 187.5 7.8125 " fill-opacity="1" fill-rule="nonzero"/><path fill="#000000" d="M 187.5 343.75 C 184.941406 343.75 182.386719 343.6875 179.832031 343.5625 C 177.277344 343.4375 174.730469 343.25 172.183594 342.996094 C 169.640625 342.746094 167.101562 342.433594 164.574219 342.058594 C 162.042969 341.683594 159.523438 341.246094 157.015625 340.746094 C 154.507812 340.25 152.015625 339.6875 149.535156 339.066406 C 147.054688 338.445312 144.589844 337.765625 142.144531 337.023438 C 139.695312 336.28125 137.269531 335.476562 134.859375 334.617188 C 132.453125 333.753906 130.066406 332.835938 127.707031 331.855469 C 125.34375 330.878906 123.007812 329.839844 120.695312 328.75 C 118.382812 327.65625 116.097656 326.503906 113.84375 325.300781 C 111.589844 324.09375 109.363281 322.835938 107.171875 321.519531 C 104.976562 320.207031 102.816406 318.835938 100.691406 317.417969 C 98.566406 315.996094 96.476562 314.523438 94.421875 313 C 92.367188 311.476562 90.351562 309.90625 88.375 308.28125 C 86.398438 306.660156 84.464844 304.992188 82.570312 303.273438 C 80.675781 301.554688 78.824219 299.792969 77.015625 297.984375 C 75.207031 296.175781 73.445312 294.324219 71.726562 292.429688 C 70.007812 290.535156 68.339844 288.601562 66.71875 286.625 C 65.09375 284.648438 63.523438 282.632812 62 280.578125 C 60.476562 278.523438 59.003906 276.433594 57.582031 274.308594 C 56.164062 272.179688 54.792969 270.023438 53.480469 267.828125 C 52.164062 265.636719 50.90625 263.410156 49.699219 261.15625 C 48.496094 258.902344 47.34375 256.617188 46.25 254.304688 C 45.160156 251.992188 44.121094 249.65625 43.144531 247.292969 C 42.164062 244.933594 41.246094 242.546875 40.382812 240.140625 C 39.523438 237.730469 38.71875 235.304688 37.976562 232.855469 C 37.234375 230.410156 36.554688 227.945312 35.933594 225.464844 C 35.3125 222.984375 34.75 220.492188 34.253906 217.984375 C 33.753906 215.476562 33.316406 212.957031 32.941406 210.425781 C 32.566406 207.898438 32.253906 205.359375 32.003906 202.816406 C 31.75 200.269531 31.5625 197.722656 31.4375 195.167969 C 31.3125 192.613281 31.25 190.058594 31.25 187.5 C 31.25 184.941406 31.3125 182.386719 31.4375 179.832031 C 31.5625 177.277344 31.75 174.730469 32.003906 172.183594 C 32.253906 169.640625 32.566406 167.101562 32.941406 164.574219 C 33.316406 162.042969 33.753906 159.523438 34.253906 157.015625 C 34.75 154.507812 35.3125 152.015625 35.933594 149.535156 C 36.554688 147.054688 37.234375 144.589844 37.976562 142.144531 C 38.71875 139.695312 39.523438 137.269531 40.382812 134.859375 C 41.246094 132.453125 42.164062 130.066406 43.144531 127.707031 C 44.121094 125.34375 45.160156 123.007812 46.25 120.695312 C 47.34375 118.382812 48.496094 116.097656 49.699219 113.84375 C 50.90625 111.589844 52.164062 109.363281 53.480469 107.171875 C 54.792969 104.976562 56.164062 102.816406 57.582031 100.691406 C 59.003906 98.566406 60.476562 96.476562 62 94.421875 C 63.523438 92.367188 65.09375 90.351562 66.71875 88.375 C 68.339844 86.398438 70.007812 84.464844 71.726562 82.570312 C 73.445312 80.675781 75.207031 78.824219 77.015625 77.015625 C 78.824219 75.207031 80.675781 73.445312 82.570312 71.726562 C 84.464844 70.007812 86.398438 68.339844 88.375 66.71875 C 90.351562 65.09375 92.367188 63.523438 94.421875 62 C 96.476562 60.476562 98.566406 59.003906 100.691406 57.582031 C 102.820312 56.164062 104.976562 54.792969 107.171875 53.480469 C 109.363281 52.164062 111.589844 50.90625 113.84375 49.699219 C 116.097656 48.496094 118.382812 47.34375 120.695312 46.25 C 123.007812 45.160156 125.34375 44.121094 127.707031 43.144531 C 130.066406 42.164062 132.453125 41.246094 134.859375 40.382812 C 137.269531 39.523438 139.695312 38.71875 142.144531 37.976562 C 144.589844 37.234375 147.054688 36.554688 149.535156 35.933594 C 152.015625 35.3125 154.507812 34.75 157.015625 34.253906 C 159.523438 33.753906 162.042969 33.316406 164.574219 32.941406 C 167.101562 32.566406 169.640625 32.253906 172.183594 32.003906 C 174.730469 31.75 177.277344 31.5625 179.832031 31.4375 C 182.386719 31.3125 184.941406 31.25 187.5 31.25 C 190.058594 31.25 192.613281 31.3125 195.167969 31.4375 C 197.722656 31.5625 200.269531 31.75 202.816406 32.003906 C 205.359375 32.253906 207.898438 32.566406 210.425781 32.941406 C 212.957031 33.316406 215.476562 33.753906 217.984375 34.253906 C 220.492188 34.75 222.984375 35.3125 225.464844 35.933594 C 227.945312 36.554688 230.410156 37.234375 232.855469 37.976562 C 235.304688 38.71875 237.730469 39.523438 240.140625 40.382812 C 242.546875 41.246094 244.933594 42.164062 247.292969 43.144531 C 249.65625 44.121094 251.992188 45.160156 254.304688 46.25 C 256.617188 47.34375 258.902344 48.496094 261.15625 49.699219 C 263.410156 50.90625 265.636719 52.164062 267.828125 53.480469 C 270.023438 54.792969 272.179688 56.164062 274.308594 57.582031 C 276.433594 59.003906 278.523438 60.476562 280.578125 62 C 282.632812 63.523438 284.648438 65.09375 286.625 66.71875 C 288.601562 68.339844 290.535156 70.007812 292.429688 71.726562 C 294.324219 73.445312 296.175781 75.207031 297.984375 77.015625 C 299.792969 78.824219 301.554688 80.675781 303.273438 82.570312 C 304.992188 84.464844 306.660156 86.398438 308.28125 88.375 C 309.90625 90.351562 311.476562 92.367188 313 94.421875 C 314.523438 96.476562 315.996094 98.566406 317.417969 100.691406 C 318.835938 102.816406 320.207031 104.976562 321.519531 107.171875 C 322.835938 109.363281 324.09375 111.589844 325.300781 113.84375 C 326.503906 116.097656 327.65625 118.382812 328.75 120.695312 C 329.839844 123.007812 330.878906 125.34375 331.855469 127.707031 C 332.835938 130.066406 333.753906 132.453125 334.617188 134.859375 C 335.476562 137.269531 336.28125 139.695312 337.023438 142.144531 C 337.765625 144.589844 338.445312 147.054688 339.066406 149.535156 C 339.6875 152.015625 340.25 154.507812 340.746094 157.015625 C 341.246094 159.523438 341.683594 162.042969 342.058594 164.574219 C 342.433594 167.101562 342.746094 169.640625 342.996094 172.183594 C 343.25 174.730469 343.4375 177.277344 343.5625 179.832031 C 343.6875 182.386719 343.75 184.941406 343.75 187.5 C 343.75 190.058594 343.6875 192.613281 343.5625 195.167969 C 343.4375 197.722656 343.25 200.269531 342.996094 202.816406 C 342.746094 205.359375 342.433594 207.898438 342.058594 210.425781 C 341.683594 212.957031 341.246094 215.476562 340.746094 217.984375 C 340.25 220.492188 339.6875 222.984375 339.066406 225.464844 C 338.445312 227.945312 337.765625 230.410156 337.023438 232.855469 C 336.28125 235.304688 335.476562 237.730469 334.617188 240.140625 C 333.753906 242.546875 332.835938 244.933594 331.855469 247.292969 C 330.878906 249.65625 329.839844 251.992188 328.75 254.304688 C 327.65625 256.617188 326.503906 258.902344 325.300781 261.15625 C 324.09375 263.410156 322.835938 265.636719 321.519531 267.828125 C 320.207031 270.023438 318.835938 272.179688 317.417969 274.308594 C 315.996094 276.433594 314.523438 278.523438 313 280.578125 C 311.476562 282.632812 309.90625 284.648438 308.28125 286.625 C 306.660156 288.601562 304.992188 290.535156 303.273438 292.429688 C 301.554688 294.324219 299.792969 296.175781 297.984375 297.984375 C 296.175781 299.792969 294.324219 301.554688 292.429688 303.273438 C 290.535156 304.992188 288.601562 306.660156 286.625 308.28125 C 284.648438 309.90625 282.632812 311.476562 280.578125 313 C 278.523438 314.523438 276.433594 315.996094 274.308594 317.417969 C 272.179688 318.835938 270.023438 320.207031 267.828125 321.519531 C 265.636719 322.835938 263.410156 324.09375 261.15625 325.300781 C 258.902344 326.503906 256.617188 327.65625 254.304688 328.75 C 251.992188 329.839844 249.65625 330.878906 247.292969 331.855469 C 244.933594 332.835938 242.546875 333.753906 240.140625 334.617188 C 237.730469 335.476562 235.304688 336.28125 232.855469 337.023438 C 230.410156 337.765625 227.945312 338.445312 225.464844 339.066406 C 222.984375 339.6875 220.492188 340.25 217.984375 340.746094 C 215.476562 341.246094 212.957031 341.683594 210.425781 342.058594 C 207.898438 342.433594 205.359375 342.746094 202.816406 342.996094 C 200.269531 343.25 197.722656 343.4375 195.167969 343.5625 C 192.613281 343.6875 190.058594 343.75 187.5 343.75 Z M 187.5 39.0625 C 185.070312 39.0625 182.644531 39.121094 180.214844 39.242188 C 177.789062 39.359375 175.367188 39.539062 172.949219 39.777344 C 170.53125 40.015625 168.121094 40.3125 165.71875 40.667969 C 163.316406 41.027344 160.925781 41.441406 158.542969 41.914062 C 156.160156 42.386719 153.789062 42.921875 151.433594 43.511719 C 149.074219 44.101562 146.734375 44.75 144.410156 45.453125 C 142.085938 46.160156 139.78125 46.921875 137.492188 47.738281 C 135.207031 48.558594 132.941406 49.433594 130.695312 50.363281 C 128.449219 51.292969 126.230469 52.277344 124.035156 53.3125 C 121.839844 54.351562 119.667969 55.445312 117.527344 56.589844 C 115.382812 57.734375 113.273438 58.933594 111.1875 60.179688 C 109.105469 61.429688 107.050781 62.730469 105.03125 64.078125 C 103.011719 65.429688 101.027344 66.828125 99.074219 68.273438 C 97.125 69.722656 95.210938 71.214844 93.332031 72.757812 C 91.453125 74.296875 89.617188 75.882812 87.816406 77.515625 C 86.015625 79.144531 84.257812 80.820312 82.539062 82.539062 C 80.820312 84.257812 79.144531 86.015625 77.515625 87.816406 C 75.882812 89.617188 74.296875 91.453125 72.757812 93.332031 C 71.214844 95.210938 69.722656 97.125 68.273438 99.074219 C 66.828125 101.027344 65.429688 103.011719 64.078125 105.03125 C 62.730469 107.050781 61.429688 109.105469 60.179688 111.1875 C 58.933594 113.273438 57.734375 115.382812 56.589844 117.527344 C 55.445312 119.667969 54.351562 121.839844 53.3125 124.035156 C 52.277344 126.230469 51.292969 128.449219 50.363281 130.695312 C 49.433594 132.941406 48.558594 135.207031 47.738281 137.492188 C 46.921875 139.78125 46.160156 142.085938 45.453125 144.410156 C 44.75 146.734375 44.101562 149.074219 43.511719 151.433594 C 42.921875 153.789062 42.386719 156.160156 41.914062 158.542969 C 41.441406 160.925781 41.027344 163.316406 40.667969 165.71875 C 40.3125 168.121094 40.015625 170.53125 39.777344 172.949219 C 39.539062 175.367188 39.359375 177.789062 39.242188 180.214844 C 39.121094 182.644531 39.0625 185.070312 39.0625 187.5 C 39.0625 189.929688 39.121094 192.355469 39.242188 194.785156 C 39.359375 197.210938 39.539062 199.632812 39.777344 202.050781 C 40.015625 204.46875 40.3125 206.878906 40.667969 209.28125 C 41.027344 211.683594 41.441406 214.074219 41.914062 216.457031 C 42.386719 218.839844 42.921875 221.210938 43.511719 223.566406 C 44.101562 225.925781 44.75 228.265625 45.453125 230.589844 C 46.160156 232.914062 46.921875 235.21875 47.738281 237.507812 C 48.558594 239.792969 49.433594 242.058594 50.363281 244.304688 C 51.292969 246.550781 52.277344 248.769531 53.3125 250.964844 C 54.351562 253.160156 55.445312 255.332031 56.589844 257.472656 C 57.734375 259.617188 58.933594 261.726562 60.179688 263.8125 C 61.429688 265.894531 62.730469 267.949219 64.078125 269.96875 C 65.429688 271.988281 66.828125 273.972656 68.273438 275.925781 C 69.722656 277.875 71.214844 279.789062 72.757812 281.667969 C 74.296875 283.546875 75.882812 285.382812 77.515625 287.183594 C 79.144531 288.984375 80.820312 290.742188 82.539062 292.460938 C 84.257812 294.179688 86.015625 295.851562 87.816406 297.484375 C 89.617188 299.117188 91.453125 300.703125 93.332031 302.242188 C 95.210938 303.785156 97.125 305.277344 99.074219 306.726562 C 101.027344 308.171875 103.011719 309.570312 105.03125 310.921875 C 107.050781 312.269531 109.105469 313.570312 111.1875 314.820312 C 113.273438 316.066406 115.382812 317.265625 117.527344 318.410156 C 119.667969 319.554688 121.839844 320.648438 124.035156 321.6875 C 126.230469 322.722656 128.449219 323.707031 130.695312 324.636719 C 132.941406 325.566406 135.207031 326.441406 137.492188 327.261719 C 139.78125 328.078125 142.085938 328.839844 144.410156 329.546875 C 146.734375 330.25 149.074219 330.898438 151.433594 331.488281 C 153.789062 332.078125 156.160156 332.613281 158.542969 333.085938 C 160.925781 333.558594 163.316406 333.972656 165.71875 334.332031 C 168.121094 334.6875 170.53125 334.984375 172.949219 335.222656 C 175.367188 335.460938 177.789062 335.640625 180.214844 335.757812 C 182.644531 335.878906 185.070312 335.9375 187.5 335.9375 C 189.929688 335.9375 192.355469 335.878906 194.785156 335.757812 C 197.210938 335.640625 199.632812 335.460938 202.050781 335.222656 C 204.46875 334.984375 206.878906 334.6875 209.28125 334.332031 C 211.683594 333.972656 214.074219 333.558594 216.457031 333.085938 C 218.839844 332.613281 221.210938 332.078125 223.566406 331.488281 C 225.925781 330.898438 228.265625 330.25 230.589844 329.546875 C 232.914062 328.839844 235.21875 328.078125 237.507812 327.261719 C 239.792969 326.441406 242.058594 325.566406 244.304688 324.636719 C 246.550781 323.707031 248.769531 322.722656 250.964844 321.6875 C 253.160156 320.648438 255.332031 319.554688 257.472656 318.410156 C 259.617188 317.265625 261.726562 316.066406 263.8125 314.820312 C 265.894531 313.570312 267.949219 312.269531 269.96875 310.921875 C 271.988281 309.570312 273.972656 308.171875 275.925781 306.726562 C 277.875 305.277344 279.789062 303.785156 281.667969 302.242188 C 283.546875 300.703125 285.382812 299.117188 287.183594 297.484375 C 288.984375 295.851562 290.742188 294.179688 292.460938 292.460938 C 294.179688 290.742188 295.851562 288.984375 297.484375 287.183594 C 299.117188 285.382812 300.703125 283.546875 302.242188 281.667969 C 303.785156 279.789062 305.277344 277.875 306.726562 275.925781 C 308.171875 273.972656 309.570312 271.988281 310.921875 269.96875 C 312.269531 267.949219 313.570312 265.894531 314.820312 263.8125 C 316.066406 261.726562 317.265625 259.617188 318.410156 257.472656 C 319.554688 255.332031 320.648438 253.160156 321.6875 250.964844 C 322.722656 248.769531 323.707031 246.550781 324.636719 244.304688 C 325.566406 242.058594 326.441406 239.792969 327.261719 237.507812 C 328.078125 235.21875 328.839844 232.914062 329.546875 230.589844 C 330.25 228.265625 330.898438 225.925781 331.488281 223.566406 C 332.078125 221.210938 332.613281 218.839844 333.085938 216.457031 C 333.558594 214.074219 333.972656 211.683594 334.332031 209.28125 C 334.6875 206.878906 334.984375 204.46875 335.222656 202.050781 C 335.460938 199.632812 335.640625 197.210938 335.757812 194.785156 C 335.878906 192.355469 335.9375 189.929688 335.9375 187.5 C 335.9375 185.070312 335.878906 182.644531 335.757812 180.214844 C 335.640625 177.789062 335.460938 175.367188 335.222656 172.949219 C 334.984375 170.53125 334.6875 168.121094 334.332031 165.71875 C 333.972656 163.316406 333.558594 160.925781 333.085938 158.542969 C 332.613281 156.160156 332.078125 153.789062 331.488281 151.433594 C 330.898438 149.074219 330.25 146.734375 329.546875 144.410156 C 328.839844 142.085938 328.078125 139.78125 327.261719 137.492188 C 326.441406 135.207031 325.566406 132.941406 324.636719 130.695312 C 323.707031 128.449219 322.722656 126.230469 321.6875 124.035156 C 320.648438 121.839844 319.554688 119.667969 318.410156 117.527344 C 317.265625 115.382812 316.066406 113.273438 314.820312 111.1875 C 313.570312 109.105469 312.269531 107.050781 310.921875 105.03125 C 309.570312 103.011719 308.171875 101.027344 306.726562 99.074219 C 305.277344 97.125 303.785156 95.210938 302.242188 93.332031 C 300.703125 91.453125 299.117188 89.617188 297.484375 87.816406 C 295.851562 86.015625 294.179688 84.257812 292.460938 82.539062 C 290.742188 80.820312 288.984375 79.144531 287.183594 77.515625 C 285.382812 75.882812 283.546875 74.296875 281.667969 72.757812 C 279.789062 71.214844 277.875 69.722656 275.925781 68.273438 C 273.972656 66.828125 271.988281 65.429688 269.96875 64.078125 C 267.949219 62.730469 265.894531 61.429688 263.8125 60.179688 C 261.726562 58.933594 259.617188 57.734375 257.472656 56.589844 C 255.332031 55.445312 253.160156 54.351562 250.964844 53.3125 C 248.769531 52.277344 246.550781 51.292969 244.304688 50.363281 C 242.058594 49.433594 239.792969 48.558594 237.507812 47.738281 C 235.21875 46.921875 232.914062 46.160156 230.589844 45.453125 C 228.265625 44.75 225.925781 44.101562 223.566406 43.511719 C 221.210938 42.921875 218.839844 42.386719 216.457031 41.914062 C 214.074219 41.441406 211.683594 41.027344 209.28125 40.667969 C 206.878906 40.3125 204.46875 40.015625 202.050781 39.777344 C 199.632812 39.539062 197.210938 39.359375 194.785156 39.242188 C 192.355469 39.121094 189.929688 39.0625 187.5 39.0625 Z M 187.5 39.0625 " fill-opacity="1" fill-rule="nonzero"/><path fill="#000000" d="M 187.5 312.5 C 185.453125 312.5 183.410156 312.449219 181.367188 312.347656 C 179.324219 312.25 177.285156 312.097656 175.246094 311.898438 C 173.210938 311.699219 171.183594 311.445312 169.160156 311.148438 C 167.136719 310.847656 165.121094 310.496094 163.113281 310.097656 C 161.105469 309.699219 159.113281 309.25 157.128906 308.753906 C 155.144531 308.257812 153.171875 307.710938 151.214844 307.117188 C 149.257812 306.523438 147.316406 305.882812 145.390625 305.191406 C 143.460938 304.503906 141.554688 303.769531 139.664062 302.984375 C 137.773438 302.203125 135.90625 301.375 134.054688 300.5 C 132.207031 299.625 130.378906 298.703125 128.574219 297.738281 C 126.769531 296.777344 124.992188 295.769531 123.238281 294.714844 C 121.484375 293.664062 119.753906 292.570312 118.054688 291.433594 C 116.351562 290.296875 114.679688 289.121094 113.039062 287.902344 C 111.394531 286.683594 109.78125 285.425781 108.199219 284.125 C 106.621094 282.828125 105.070312 281.492188 103.554688 280.117188 C 102.039062 278.746094 100.558594 277.335938 99.113281 275.886719 C 97.664062 274.441406 96.253906 272.960938 94.882812 271.445312 C 93.507812 269.929688 92.171875 268.378906 90.875 266.800781 C 89.574219 265.21875 88.316406 263.605469 87.097656 261.960938 C 85.878906 260.320312 84.703125 258.648438 83.566406 256.945312 C 82.429688 255.246094 81.335938 253.515625 80.285156 251.761719 C 79.230469 250.007812 78.222656 248.230469 77.261719 246.425781 C 76.296875 244.621094 75.375 242.792969 74.5 240.945312 C 73.625 239.09375 72.796875 237.226562 72.015625 235.335938 C 71.230469 233.445312 70.496094 231.539062 69.808594 229.609375 C 69.117188 227.683594 68.476562 225.742188 67.882812 223.785156 C 67.289062 221.828125 66.742188 219.855469 66.246094 217.871094 C 65.75 215.886719 65.300781 213.894531 64.902344 211.886719 C 64.503906 209.878906 64.152344 207.863281 63.851562 205.839844 C 63.554688 203.816406 63.300781 201.789062 63.101562 199.753906 C 62.902344 197.714844 62.75 195.675781 62.652344 193.632812 C 62.550781 191.589844 62.5 189.546875 62.5 187.5 C 62.5 185.453125 62.550781 183.410156 62.652344 181.367188 C 62.75 179.324219 62.902344 177.285156 63.101562 175.246094 C 63.300781 173.210938 63.554688 171.183594 63.851562 169.160156 C 64.152344 167.136719 64.503906 165.121094 64.902344 163.113281 C 65.300781 161.105469 65.75 159.113281 66.246094 157.128906 C 66.742188 155.144531 67.289062 153.171875 67.882812 151.214844 C 68.476562 149.257812 69.117188 147.316406 69.808594 145.390625 C 70.496094 143.460938 71.230469 141.554688 72.015625 139.664062 C 72.796875 137.773438 73.625 135.90625 74.5 134.054688 C 75.375 132.207031 76.296875 130.378906 77.261719 128.574219 C 78.222656 126.769531 79.230469 124.992188 80.285156 123.238281 C 81.335938 121.484375 82.429688 119.753906 83.566406 118.054688 C 84.703125 116.351562 85.878906 114.679688 87.097656 113.039062 C 88.316406 111.394531 89.574219 109.78125 90.875 108.199219 C 92.171875 106.621094 93.507812 105.070312 94.882812 103.554688 C 96.253906 102.039062 97.664062 100.558594 99.113281 99.113281 C 100.558594 97.664062 102.039062 96.253906 103.554688 94.882812 C 105.070312 93.507812 106.621094 92.171875 108.199219 90.875 C 109.78125 89.574219 111.394531 88.316406 113.039062 87.097656 C 114.679688 85.878906 116.351562 84.703125 118.054688 83.566406 C 119.753906 82.429688 121.484375 81.335938 123.238281 80.285156 C 124.992188 79.230469 126.769531 78.222656 128.574219 77.261719 C 130.378906 76.296875 132.207031 75.375 134.054688 74.5 C 135.90625 73.625 137.773438 72.796875 139.664062 72.015625 C 141.554688 71.230469 143.460938 70.496094 145.390625 69.808594 C 147.316406 69.117188 149.257812 68.476562 151.214844 67.882812 C 153.171875 67.289062 155.144531 66.742188 157.128906 66.246094 C 159.113281 65.75 161.105469 65.300781 163.113281 64.902344 C 165.121094 64.503906 167.136719 64.152344 169.160156 63.851562 C 171.183594 63.554688 173.210938 63.300781 175.246094 63.101562 C 177.285156 62.902344 179.324219 62.75 181.367188 62.652344 C 183.410156 62.550781 185.453125 62.5 187.5 62.5 C 189.546875 62.5 191.589844 62.550781 193.632812 62.652344 C 195.675781 62.75 197.714844 62.902344 199.753906 63.101562 C 201.789062 63.300781 203.816406 63.554688 205.839844 63.851562 C 207.863281 64.152344 209.878906 64.503906 211.886719 64.902344 C 213.894531 65.300781 215.886719 65.75 217.871094 66.246094 C 219.855469 66.742188 221.828125 67.289062 223.785156 67.882812 C 225.742188 68.476562 227.683594 69.117188 229.609375 69.808594 C 231.539062 70.496094 233.445312 71.230469 235.335938 72.015625 C 237.226562 72.796875 239.09375 73.625 240.945312 74.5 C 242.792969 75.375 244.621094 76.296875 246.425781 77.261719 C 248.230469 78.222656 250.007812 79.230469 251.761719 80.285156 C 253.515625 81.335938 255.246094 82.429688 256.945312 83.566406 C 258.648438 84.703125 260.320312 85.878906 261.960938 87.097656 C 263.605469 88.316406 265.21875 89.574219 266.800781 90.875 C 268.378906 92.171875 269.929688 93.507812 271.445312 94.882812 C 272.960938 96.253906 274.441406 97.664062 275.886719 99.113281 C 277.335938 100.558594 278.746094 102.039062 280.117188 103.554688 C 281.492188 105.070312 282.828125 106.621094 284.125 108.199219 C 285.425781 109.78125 286.683594 111.394531 287.902344 113.039062 C 289.121094 114.679688 290.296875 116.351562 291.433594 118.054688 C 292.570312 119.753906 293.664062 121.484375 294.714844 123.238281 C 295.769531 124.992188 296.777344 126.769531 297.738281 128.574219 C 298.703125 130.378906 299.625 132.207031 300.5 134.054688 C 301.375 135.90625 302.203125 137.773438 302.984375 139.664062 C 303.769531 141.554688 304.503906 143.460938 305.191406 145.390625 C 305.882812 147.316406 306.523438 149.257812 307.117188 151.214844 C 307.710938 153.171875 308.257812 155.144531 308.753906 157.128906 C 309.25 159.113281 309.699219 161.105469 310.097656 163.113281 C 310.496094 165.121094 310.847656 167.136719 311.148438 169.160156 C 311.445312 171.183594 311.699219 173.210938 311.898438 175.246094 C 312.097656 177.285156 312.25 179.324219 312.347656 181.367188 C 312.449219 183.410156 312.5 185.453125 312.5 187.5 C 312.5 189.546875 312.449219 191.589844 312.347656 193.632812 C 312.25 195.675781 312.097656 197.714844 311.898438 199.753906 C 311.699219 201.789062 311.445312 203.816406 311.148438 205.839844 C 310.847656 207.863281 310.496094 209.878906 310.097656 211.886719 C 309.699219 213.894531 309.25 215.886719 308.753906 217.871094 C 308.257812 219.855469 307.710938 221.828125 307.117188 223.785156 C 306.523438 225.742188 305.882812 227.683594 305.191406 229.609375 C 304.503906 231.539062 303.769531 233.445312 302.984375 235.335938 C 302.203125 237.226562 301.375 239.09375 300.5 240.945312 C 299.625 242.792969 298.703125 244.621094 297.738281 246.425781 C 296.777344 248.230469 295.769531 250.007812 294.714844 251.761719 C 293.664062 253.515625 292.570312 255.246094 291.433594 256.945312 C 290.296875 258.648438 289.121094 260.320312 287.902344 261.960938 C 286.683594 263.605469 285.425781 265.21875 284.125 266.800781 C 282.828125 268.378906 281.492188 269.929688 280.117188 271.445312 C 278.746094 272.960938 277.335938 274.441406 275.886719 275.886719 C 274.441406 277.335938 272.960938 278.746094 271.445312 280.117188 C 269.929688 281.492188 268.378906 282.828125 266.800781 284.125 C 265.21875 285.425781 263.605469 286.683594 261.960938 287.902344 C 260.320312 289.121094 258.648438 290.296875 256.945312 291.433594 C 255.246094 292.570312 253.515625 293.664062 251.761719 294.714844 C 250.007812 295.769531 248.230469 296.777344 246.425781 297.738281 C 244.621094 298.703125 242.792969 299.625 240.945312 300.5 C 239.09375 301.375 237.226562 302.203125 235.335938 302.984375 C 233.445312 303.769531 231.539062 304.503906 229.609375 305.191406 C 227.683594 305.882812 225.742188 306.523438 223.785156 307.117188 C 221.828125 307.710938 219.855469 308.257812 217.871094 308.753906 C 215.886719 309.25 213.894531 309.699219 211.886719 310.097656 C 209.878906 310.496094 207.863281 310.847656 205.839844 311.148438 C 203.816406 311.445312 201.789062 311.699219 199.753906 311.898438 C 197.714844 312.097656 195.675781 312.25 193.632812 312.347656 C 191.589844 312.449219 189.546875 312.5 187.5 312.5 Z M 187.5 70.3125 C 185.582031 70.3125 183.664062 70.359375 181.75 70.453125 C 179.835938 70.546875 177.921875 70.6875 176.011719 70.875 C 174.105469 71.066406 172.203125 71.300781 170.304688 71.582031 C 168.40625 71.863281 166.519531 72.191406 164.636719 72.5625 C 162.757812 72.9375 160.886719 73.359375 159.027344 73.824219 C 157.164062 74.289062 155.316406 74.800781 153.480469 75.359375 C 151.648438 75.914062 149.828125 76.515625 148.019531 77.164062 C 146.214844 77.808594 144.425781 78.5 142.652344 79.234375 C 140.882812 79.964844 139.128906 80.742188 137.394531 81.5625 C 135.664062 82.382812 133.949219 83.246094 132.257812 84.148438 C 130.566406 85.054688 128.898438 86 127.253906 86.984375 C 125.609375 87.972656 123.988281 88.996094 122.394531 90.0625 C 120.800781 91.128906 119.230469 92.230469 117.691406 93.375 C 116.152344 94.515625 114.640625 95.695312 113.15625 96.914062 C 111.675781 98.128906 110.222656 99.382812 108.800781 100.667969 C 107.378906 101.957031 105.992188 103.28125 104.636719 104.636719 C 103.28125 105.992188 101.957031 107.378906 100.667969 108.800781 C 99.382812 110.222656 98.128906 111.675781 96.914062 113.15625 C 95.695312 114.640625 94.515625 116.152344 93.375 117.691406 C 92.230469 119.230469 91.128906 120.800781 90.0625 122.394531 C 88.996094 123.988281 87.972656 125.609375 86.984375 127.253906 C 86 128.898438 85.054688 130.566406 84.148438 132.257812 C 83.246094 133.949219 82.382812 135.664062 81.5625 137.394531 C 80.742188 139.128906 79.964844 140.882812 79.234375 142.652344 C 78.5 144.425781 77.808594 146.214844 77.164062 148.019531 C 76.515625 149.828125 75.914062 151.648438 75.359375 153.480469 C 74.800781 155.316406 74.289062 157.164062 73.824219 159.027344 C 73.359375 160.886719 72.9375 162.757812 72.5625 164.636719 C 72.191406 166.519531 71.863281 168.40625 71.582031 170.304688 C 71.300781 172.203125 71.066406 174.105469 70.875 176.011719 C 70.6875 177.921875 70.546875 179.835938 70.453125 181.75 C 70.359375 183.664062 70.3125 185.582031 70.3125 187.5 C 70.3125 189.417969 70.359375 191.335938 70.453125 193.25 C 70.546875 195.164062 70.6875 197.078125 70.875 198.988281 C 71.066406 200.894531 71.300781 202.796875 71.582031 204.695312 C 71.863281 206.59375 72.191406 208.480469 72.5625 210.363281 C 72.9375 212.242188 73.359375 214.113281 73.824219 215.972656 C 74.289062 217.835938 74.800781 219.683594 75.359375 221.519531 C 75.914062 223.351562 76.515625 225.171875 77.164062 226.980469 C 77.808594 228.785156 78.5 230.574219 79.234375 232.347656 C 79.964844 234.117188 80.742188 235.871094 81.5625 237.605469 C 82.382812 239.335938 83.246094 241.050781 84.148438 242.742188 C 85.054688 244.433594 86 246.101562 86.984375 247.746094 C 87.972656 249.390625 88.996094 251.011719 90.0625 252.605469 C 91.128906 254.199219 92.230469 255.769531 93.375 257.308594 C 94.515625 258.847656 95.695312 260.359375 96.914062 261.84375 C 98.128906 263.324219 99.382812 264.777344 100.667969 266.199219 C 101.957031 267.621094 103.28125 269.007812 104.636719 270.363281 C 105.992188 271.71875 107.378906 273.042969 108.800781 274.332031 C 110.222656 275.617188 111.675781 276.871094 113.15625 278.085938 C 114.640625 279.304688 116.152344 280.484375 117.691406 281.625 C 119.230469 282.769531 120.800781 283.871094 122.394531 284.9375 C 123.988281 286.003906 125.609375 287.027344 127.253906 288.015625 C 128.898438 289 130.566406 289.945312 132.257812 290.851562 C 133.949219 291.753906 135.664062 292.617188 137.394531 293.4375 C 139.128906 294.257812 140.882812 295.03125 142.652344 295.765625 C 144.425781 296.5 146.214844 297.191406 148.019531 297.835938 C 149.828125 298.484375 151.648438 299.085938 153.480469 299.640625 C 155.316406 300.199219 157.164062 300.710938 159.027344 301.175781 C 160.886719 301.640625 162.757812 302.0625 164.636719 302.4375 C 166.519531 302.808594 168.40625 303.136719 170.304688 303.417969 C 172.203125 303.699219 174.105469 303.933594 176.011719 304.125 C 177.921875 304.3125 179.835938 304.453125 181.75 304.546875 C 183.664062 304.640625 185.582031 304.6875 187.5 304.6875 C 189.417969 304.6875 191.335938 304.640625 193.25 304.546875 C 195.164062 304.453125 197.078125 304.3125 198.988281 304.125 C 200.894531 303.933594 202.796875 303.699219 204.695312 303.417969 C 206.59375 303.136719 208.480469 302.808594 210.363281 302.4375 C 212.242188 302.0625 214.113281 301.640625 215.972656 301.175781 C 217.835938 300.710938 219.683594 300.199219 221.519531 299.640625 C 223.351562 299.085938 225.171875 298.484375 226.980469 297.835938 C 228.785156 297.191406 230.574219 296.5 232.347656 295.765625 C 234.117188 295.03125 235.871094 294.257812 237.605469 293.4375 C 239.335938 292.617188 241.050781 291.753906 242.742188 290.851562 C 244.433594 289.945312 246.101562 289 247.746094 288.015625 C 249.390625 287.027344 251.011719 286.003906 252.605469 284.9375 C 254.199219 283.871094 255.769531 282.769531 257.308594 281.625 C 258.847656 280.484375 260.359375 279.304688 261.84375 278.085938 C 263.324219 276.871094 264.777344 275.617188 266.199219 274.332031 C 267.621094 273.042969 269.007812 271.71875 270.363281 270.363281 C 271.71875 269.007812 273.042969 267.621094 274.332031 266.199219 C 275.617188 264.777344 276.871094 263.324219 278.085938 261.84375 C 279.304688 260.359375 280.484375 258.847656 281.625 257.308594 C 282.769531 255.769531 283.871094 254.199219 284.9375 252.605469 C 286.003906 251.011719 287.027344 249.390625 288.015625 247.746094 C 289 246.101562 289.945312 244.433594 290.851562 242.742188 C 291.753906 241.050781 292.617188 239.335938 293.4375 237.605469 C 294.257812 235.871094 295.03125 234.117188 295.765625 232.347656 C 296.5 230.574219 297.191406 228.785156 297.835938 226.980469 C 298.484375 225.171875 299.085938 223.351562 299.640625 221.519531 C 300.199219 219.683594 300.710938 217.835938 301.175781 215.972656 C 301.640625 214.113281 302.0625 212.242188 302.4375 210.363281 C 302.808594 208.480469 303.136719 206.59375 303.417969 204.695312 C 303.699219 202.796875 303.933594 200.894531 304.125 198.988281 C 304.3125 197.078125 304.453125 195.164062 304.546875 193.25 C 304.640625 191.335938 304.6875 189.417969 304.6875 187.5 C 304.6875 185.582031 304.640625 183.664062 304.546875 181.75 C 304.453125 179.835938 304.3125 177.921875 304.125 176.011719 C 303.933594 174.105469 303.699219 172.203125 303.417969 170.304688 C 303.136719 168.40625 302.808594 166.519531 302.4375 164.636719 C 302.0625 162.757812 301.640625 160.886719 301.175781 159.027344 C 300.710938 157.164062 300.199219 155.316406 299.640625 153.480469 C 299.085938 151.648438 298.484375 149.828125 297.835938 148.019531 C 297.191406 146.214844 296.5 144.425781 295.765625 142.652344 C 295.03125 140.882812 294.257812 139.128906 293.4375 137.394531 C 292.617188 135.664062 291.753906 133.949219 290.851562 132.257812 C 289.945312 130.566406 289 128.898438 288.015625 127.253906 C 287.027344 125.609375 286.003906 123.988281 284.9375 122.394531 C 283.871094 120.800781 282.769531 119.230469 281.625 117.691406 C 280.484375 116.152344 279.304688 114.640625 278.085938 113.15625 C 276.871094 111.675781 275.617188 110.222656 274.332031 108.800781 C 273.042969 107.378906 271.71875 105.992188 270.363281 104.636719 C 269.007812 103.28125 267.621094 101.957031 266.199219 100.667969 C 264.777344 99.382812 263.324219 98.128906 261.84375 96.914062 C 260.359375 95.695312 258.847656 94.515625 257.308594 93.375 C 255.769531 92.230469 254.199219 91.128906 252.605469 90.0625 C 251.011719 88.996094 249.390625 87.972656 247.746094 86.984375 C 246.101562 86 244.433594 85.054688 242.742188 84.148438 C 241.050781 83.246094 239.335938 82.382812 237.605469 81.5625 C 235.871094 80.742188 234.117188 79.964844 232.347656 79.234375 C 230.574219 78.5 228.785156 77.808594 226.980469 77.164062 C 225.171875 76.515625 223.351562 75.914062 221.519531 75.359375 C 219.683594 74.800781 217.835938 74.289062 215.972656 73.824219 C 214.113281 73.359375 212.242188 72.9375 210.363281 72.5625 C 208.480469 72.191406 206.59375 71.863281 204.695312 71.582031 C 202.796875 71.300781 200.894531 71.066406 198.988281 70.875 C 197.078125 70.6875 195.164062 70.546875 193.25 70.453125 C 191.335938 70.359375 189.417969 70.3125 187.5 70.3125 Z M 187.5 70.3125 " fill-opacity="1" fill-rule="nonzero"/><path fill="#000000" d="M 234.648438 261.015625 C 234.046875 261.019531 233.472656 260.886719 232.929688 260.625 L 187.734375 238.789062 L 142.5 260.625 C 141.863281 260.933594 141.191406 261.058594 140.488281 261 C 139.785156 260.945312 139.140625 260.714844 138.5625 260.308594 C 137.984375 259.902344 137.546875 259.378906 137.25 258.738281 C 136.957031 258.09375 136.84375 257.421875 136.914062 256.71875 L 143.75 207.03125 L 108.984375 170.78125 C 108.488281 170.261719 108.15625 169.652344 107.996094 168.953125 C 107.835938 168.25 107.863281 167.558594 108.085938 166.875 C 108.304688 166.1875 108.683594 165.609375 109.222656 165.132812 C 109.761719 164.65625 110.386719 164.351562 111.09375 164.21875 L 160.546875 155.117188 L 184.296875 110.859375 C 184.636719 110.226562 185.117188 109.726562 185.734375 109.359375 C 186.347656 108.992188 187.015625 108.808594 187.734375 108.808594 C 188.453125 108.808594 189.121094 108.992188 189.734375 109.359375 C 190.351562 109.726562 190.832031 110.226562 191.171875 110.859375 L 214.84375 155.117188 L 264.335938 164.0625 C 265.042969 164.195312 265.667969 164.5 266.207031 164.976562 C 266.746094 165.453125 267.125 166.03125 267.34375 166.71875 C 267.570312 167.398438 267.605469 168.089844 267.453125 168.789062 C 267.296875 169.492188 266.976562 170.101562 266.484375 170.625 L 231.71875 207.03125 L 238.515625 256.796875 C 238.550781 257.074219 238.558594 257.351562 238.535156 257.628906 C 238.511719 257.90625 238.460938 258.179688 238.378906 258.449219 C 238.296875 258.714844 238.1875 258.96875 238.050781 259.214844 C 237.914062 259.457031 237.753906 259.683594 237.566406 259.894531 C 237.382812 260.101562 237.175781 260.289062 236.953125 260.453125 C 236.726562 260.621094 236.488281 260.757812 236.230469 260.875 C 235.976562 260.988281 235.710938 261.070312 235.4375 261.128906 C 235.164062 261.1875 234.890625 261.214844 234.609375 261.210938 Z M 187.773438 230.546875 C 188.363281 230.542969 188.925781 230.671875 189.453125 230.9375 L 229.84375 250.46875 L 223.710938 206.015625 C 223.628906 205.421875 223.679688 204.84375 223.867188 204.273438 C 224.050781 203.703125 224.351562 203.203125 224.765625 202.773438 L 255.78125 170.429688 L 211.679688 162.617188 C 211.089844 162.515625 210.550781 162.289062 210.0625 161.941406 C 209.578125 161.589844 209.191406 161.152344 208.90625 160.625 L 187.734375 121.09375 L 166.523438 160.46875 C 166.242188 160.992188 165.863281 161.425781 165.382812 161.777344 C 164.902344 162.125 164.371094 162.355469 163.789062 162.460938 L 119.648438 170.273438 L 150.664062 202.617188 C 151.078125 203.046875 151.378906 203.546875 151.5625 204.117188 C 151.75 204.6875 151.800781 205.265625 151.71875 205.859375 L 145.664062 250.429688 L 186.015625 230.898438 C 186.554688 230.621094 187.128906 230.480469 187.734375 230.46875 Z M 187.773438 230.546875 " fill-opacity="1" fill-rule="nonzero"/></svg>